#!OML:ASF F:\VICON\USERDATA\INSTALL\rory3\rory3.ASF
:FULLY-SPECIFIED
:DEGREES
351
root -0.00143374 17.63 35.8135 -1.4915 -7.0211 -6.18192
lowerback 9.49977 3.73218 5.97625
upperback 0.194065 5.69786 1.64962
thorax -4.70384 2.69496 -2.36136
lowerneck -17.5588 -3.05631 -1.28329
upperneck 20.8705 -4.25166 1.4847
head 9.5592 -1.90622 0.162474
rclavicle -1.73117e-014 1.0051e-014
rhumerus -22.7043 -10.9402 -82.2876
rradius 28.2904
rwrist 2.44522
rhand -19.1457 23.3178
rfingers 7.12502
rthumb 7.16448 -6.54088
lclavicle -1.73117e-014 1.0051e-014
lhumerus -38.2705 7.91857 81.1636
lradius 16.7521
lwrist -0.959488
lhand -23.6677 28.0074
lfingers 7.12502
lthumb 2.79831 57.9688
rfemur 13.0096 5.56747 31.8781
rtibia 30.0082
rfoot -14.9041 1.11392
rtoes -5.50389
lfemur -25.4987 -3.97763 -13.3413
ltibia 22.8487
lfoot -0.12479 3.14024
ltoes 4.03048
352
root 0.0121961 17.6504 36.0294 -1.71336 -6.89844 -5.76565
lowerback 9.37415 3.72247 5.60023
upperback 0.341875 5.6219 1.53678
thorax -4.50767 2.67442 -2.24635
lowerneck -17.4501 -2.97348 -1.21421
upperneck 20.642 -4.11938 1.35471
head 9.45229 -1.85716 0.127226
rclavicle -5.17927e-016 3.99744e-015
rhumerus -22.8119 -11.7192 -82.1918
rradius 28.0506
rwrist 2.62106
rhand -19.5127 24.1541
rfingers 7.12502
rthumb 6.8102 -5.71635
lclavicle -5.17927e-016 3.99744e-015
lhumerus -37.817 8.31516 80.9892
lradius 16.0061
lwrist -1.34544
lhand -23.9524 27.7974
lfingers 7.12502
lthumb 2.5233 57.7622
rfemur 12.7329 5.30732 31.2495
rtibia 31.6451
rfoot -13.1251 1.7617
rtoes -3.94764
lfemur -25.0715 -4.06807 -14.0236
ltibia 23.6289
lfoot 0.229842 2.35196
ltoes 4.76839
353
root 0.0263988 17.6705 36.2444 -2.04057 -6.58349 -4.91558
lowerback 9.45464 3.6649 4.79862
upperback 0.325873 5.45373 1.27075
thorax -4.62879 2.60251 -2.06886
lowerneck -17.1941 -2.93469 -1.01712
upperneck 20.7013 -4.08899 1.2092
head 9.41752 -1.84558 0.052171
rclavicle -4.1136e-014 -3.0265e-014
rhumerus -23.3207 -12.8993 -81.9985
rradius 27.8023
rwrist 3.04544
rhand -19.6189 24.8555
rfingers 7.12502
rthumb 6.70774 -5.01828
lclavicle -4.1136e-014 -3.0265e-014
lhumerus -37.7635 8.99481 80.3887
lradius 15.3839
lwrist -2.20681
lhand -23.9643 28.1369
lfingers 7.12502
lthumb 2.5118 58.1019
rfemur 12.4555 4.826 30.1135
rtibia 33.3984
rfoot -11.0337 2.25489
rtoes -3.25684
lfemur -24.5068 -4.05225 -15.2859
ltibia 24.2624
lfoot 0.560037 1.55719
ltoes 3.4745
354
root 0.0442977 17.6872 36.4774 -2.48161 -6.24659 -4.1722
lowerback 9.40716 3.63863 4.21337
upperback 0.37524 5.34069 1.04294
thorax -4.58818 2.55949 -1.96299
lowerneck -16.9594 -2.98353 -1.08988
upperneck 20.7947 -4.18752 1.40294
head 9.41462 -1.87605 0.12079
rclavicle -9.46106e-014 1.15544e-014
rhumerus -24.0293 -13.8194 -81.7243
rradius 27.7774
rwrist 3.13817
rhand -19.5084 24.5095
rfingers 7.12502
rthumb 6.81438 -5.36088
lclavicle -9.46106e-014 1.15544e-014
lhumerus -37.9224 9.51269 79.8573
lradius 15.0665
lwrist -3.20008
lhand -23.8583 27.792
lfingers 7.12502
lthumb 2.61422 57.7558
rfemur 12.3186 4.00457 28.9095
rtibia 35.2806
rfoot -8.91421 2.86688
rtoes -3.59631
lfemur -23.6345 -4.10198 -16.457
ltibia 24.7515
lfoot 0.755952 1.03461
ltoes 3.5496
355
root 0.0646569 17.7045 36.7046 -2.81231 -6.06081 -3.72078
lowerback 9.28062 3.61313 3.95477
upperback 0.545996 5.25846 0.872699
thorax -4.35014 2.53154 -1.96925
lowerneck -17.1202 -3.11486 -1.24043
upperneck 20.8986 -4.40691 1.71893
head 9.49558 -1.95155 0.222214
rclavicle -1.86128e-014 -1.49089e-015
rhumerus -24.2814 -14.6527 -81.5704
rradius 27.5934
rwrist 3.2988
rhand -19.3256 24.1997
rfingers 7.12502
rthumb 6.99089 -5.66483
lclavicle -1.86128e-014 -1.49089e-015
lhumerus -37.7851 9.88553 79.4717
lradius 14.8396
lwrist -3.89777
lhand -23.5492 27.3873
lfingers 7.12502
lthumb 2.91273 57.3471
rfemur 11.9637 3.32187 27.9865
rtibia 37.1768
rfoot -6.26217 3.42115
rtoes -3.37374
lfemur -22.861 -4.09664 -17.248
ltibia 25.26
lfoot 0.769116 0.618738
ltoes 4.86829
